<svg version="1.1" xmlns="http://www.w3.org/2000/svg" xmlns:xlink="http://www.w3.org/1999/xlink" width="500" height="500"><g data-paper-data="{&quot;description&quot;:&quot;Logo for online auction\n=======================\n\nThis logo was generated by MarkMaker at http://emblemmatic.org/markmaker/ and may be composed of elements designed by others.\n\nThe font is Overlock SC designed by Dario Manuel Muhafara and released under the OFL license via Google Fonts: https://www.google.com/fonts/specimen/Overlock%20SC. The font includes this copyright statement: Copyright (c) 2011, Dario Manuel Muhafara (http://www.tipo.net.ar dario@tipo.net.ar), with Reserved Font Name \\\&quot;Overlock\\\&quot;.\n\nMarkMaker uses semantic data from the Princeton University WordNet database http://wordnet.princeton.edu and font descriptions from Google Fonts https://www.google.com/fonts.&quot;}" fill="none" fill-rule="nonzero" stroke="none" stroke-width="none" stroke-linecap="butt" stroke-linejoin="miter" stroke-miterlimit="10" stroke-dasharray="" stroke-dashoffset="0" font-family="none" font-weight="none" font-size="none" text-anchor="none" style="mix-blend-mode: normal"><path d="M50,250c0,-110.45695 89.54305,-200 200,-200c110.45695,0 200,89.54305 200,200c0,110.45695 -89.54305,200 -200,200c-110.45695,0 -200,-89.54305 -200,-200z" fill="#aa05d0" stroke-width="0"></path><g data-paper-data="{&quot;elementType&quot;:&quot;logo&quot;}" fill="#ffffff" stroke-width="1"><g data-paper-data="{&quot;elementType&quot;:&quot;text&quot;}"><g data-paper-data="{&quot;baseline&quot;:52.400000000000006,&quot;elementType&quot;:&quot;row&quot;}"><g data-paper-data="{&quot;baselineProportion&quot;:0.9868173258003766,&quot;fontSize&quot;:100,&quot;baseline&quot;:52.400000000000006,&quot;elementType&quot;:&quot;word&quot;}"><path d="M142.97655,239.25524c-7.28884,0 -13.10106,-2.26205 -17.43667,-6.78616c-4.3356,-4.52411 -6.50341,-10.58767 -6.50341,-18.19069c0,-7.66585 2.1678,-13.76083 6.50341,-18.28494c4.3356,-4.52411 10.14783,-6.78616 17.43667,-6.78616c7.35168,0 13.21103,2.26205 17.57805,6.78616c4.36702,4.52411 6.55053,10.61909 6.55053,18.28494c0,7.60302 -2.18351,13.66658 -6.55053,18.19069c-4.36702,4.52411 -10.22637,6.78616 -17.57805,6.78616M159.56495,215.59792c0,-3.58159 -0.50268,-6.91183 -1.50804,-9.99074c-1.00536,-3.07891 -2.81186,-5.71797 -5.41951,-7.91719c-2.60765,-2.19922 -5.79651,-3.29883 -9.56661,-3.29883c-5.08962,0 -9.12676,1.66512 -12.11142,4.99537c-2.98466,3.33025 -4.47698,7.5716 -4.47698,12.72406c0,3.77009 0.50268,7.25742 1.50804,10.462c1.00536,3.20458 2.79615,5.93789 5.37238,8.19995c2.57623,2.26205 5.78081,3.39308 9.61373,3.39308c5.27813,0 9.36239,-1.71225 12.25279,-5.13675c2.8904,-3.4245 4.3356,-7.90148 4.3356,-13.43095z" data-paper-data="{&quot;elementType&quot;:&quot;letter&quot;,&quot;baseline&quot;:52.400000000000006,&quot;baselineProportion&quot;:0.9868173258003766,&quot;fontSize&quot;:100}"></path><path d="M217.43584,238.59548c-1.2567,0.12567 -2.23064,0.1885 -2.92182,0.1885c-2.13638,0 -3.64442,-0.62835 -4.52411,-1.88505c-1.88505,-2.8904 -5.43521,-8.67121 -10.65051,-17.34242c-5.21529,-8.67121 -9.48806,-15.42595 -12.81831,-20.26424c0.12567,4.71261 0.1885,12.12712 0.1885,22.24353c0,8.2942 0.50268,13.8865 1.50804,16.7769c-1.13103,0.31417 -2.23064,0.47126 -3.29883,0.47126c-1.69654,0 -2.82757,-0.31417 -3.39308,-0.94252c-0.56551,-0.62835 -0.84827,-1.69654 -0.84827,-3.20458c0,-0.75402 0.01571,-2.67048 0.04713,-5.74939c0.03142,-3.07891 0.04713,-5.49805 0.04713,-7.25742v-14.70335c0,-8.16853 -0.47126,-13.76083 -1.41378,-16.7769c1.13103,-0.37701 2.48198,-0.56551 4.05285,-0.56551c1.94788,0 3.58159,0.7226 4.90112,2.1678c2.45056,2.51339 6.03215,7.47735 10.74476,14.89186c4.71261,7.41451 8.85971,14.4206 12.4413,21.01826c-0.31417,-4.52411 -0.47126,-11.27885 -0.47126,-20.26424c0,-6.78616 -0.1885,-12.6298 -0.56551,-17.53092c1.00536,-0.12567 1.91646,-0.1885 2.73332,-0.1885c2.8904,0 4.3356,0.94252 4.3356,2.82757c0,0.25134 -0.04713,1.22528 -0.14138,2.92182c-0.09425,1.69654 -0.1885,3.80151 -0.28276,6.3149c-0.09425,2.51339 -0.14138,4.90112 -0.14138,7.16317v12.6298c0,7.35168 0.15709,13.03823 0.47126,17.05966z" data-paper-data="{&quot;elementType&quot;:&quot;letter&quot;,&quot;baseline&quot;:52,&quot;baselineProportion&quot;:0.9961685823754789,&quot;fontSize&quot;:100}"></path><path d="M234.40125,222.19558v-15.26887c0,-6.53482 -0.1885,-12.22138 -0.56551,-17.05966c1.00536,-0.12567 2.23064,-0.1885 3.67584,-0.1885c2.8904,0 4.3356,0.94252 4.3356,2.82757c0,0.25134 -0.04713,1.22528 -0.14138,2.92182c-0.09425,1.69654 -0.20421,3.80151 -0.32988,6.3149c-0.12567,2.51339 -0.1885,4.90112 -0.1885,7.16317v6.50341c0,9.92791 0.1885,15.92863 0.56551,18.00218c2.13638,0.12567 3.80151,0.1885 4.99537,0.1885c7.85436,0 12.94398,-0.56551 15.26887,-1.69654c0.37701,1.19386 0.56551,2.38772 0.56551,3.58159c0,1.00536 -0.21992,1.72796 -0.65977,2.1678c-0.94252,0.69118 -4.99537,1.03677 -12.15854,1.03677c-1.38237,0 -3.66013,-0.01571 -6.83329,-0.04713c-3.17316,-0.03142 -4.85399,-0.04713 -5.0425,-0.04713c-1.4452,-0.06283 -2.41914,-0.40843 -2.92182,-1.03677c-0.50268,-0.62835 -0.75402,-1.66512 -0.75402,-3.11032c0,-0.75402 0.03142,-2.54481 0.09425,-5.37238c0.06283,-2.82757 0.09425,-5.12104 0.09425,-6.88042z" data-paper-data="{&quot;elementType&quot;:&quot;letter&quot;,&quot;baseline&quot;:51.900000000000006,&quot;baselineProportion&quot;:0.9980769230769232,&quot;fontSize&quot;:100}"></path><path d="M271.8194,221.63007v-14.70335c0,-6.53482 -0.1885,-12.18996 -0.56551,-16.96541c1.13103,-0.1885 2.32489,-0.28276 3.58159,-0.28276c2.95324,0 4.42986,0.94252 4.42986,2.82757c0,0.25134 -0.04713,1.22528 -0.14138,2.92182c-0.09425,1.69654 -0.20421,3.80151 -0.32988,6.3149c-0.12567,2.51339 -0.1885,4.90112 -0.1885,7.16317v14.79761c0,6.59766 0.50268,11.43594 1.50804,14.51485c-0.94252,0.37701 -2.32489,0.56551 -4.1471,0.56551c-1.69654,0 -2.84328,-0.31417 -3.44021,-0.94252c-0.59693,-0.62835 -0.8954,-1.69654 -0.8954,-3.20458c0,-0.75402 0.03142,-2.67048 0.09425,-5.74939c0.06283,-3.07891 0.09425,-5.49805 0.09425,-7.25742z" data-paper-data="{&quot;elementType&quot;:&quot;letter&quot;,&quot;baseline&quot;:51.900000000000006,&quot;baselineProportion&quot;:0.9961612284069097,&quot;fontSize&quot;:100}"></path><path d="M333.64889,238.59548c-1.2567,0.12567 -2.23064,0.1885 -2.92182,0.1885c-2.13638,0 -3.64442,-0.62835 -4.52411,-1.88505c-1.88505,-2.8904 -5.43521,-8.67121 -10.65051,-17.34242c-5.21529,-8.67121 -9.48806,-15.42595 -12.81831,-20.26424c0.12567,4.71261 0.1885,12.12712 0.1885,22.24353c0,8.2942 0.50268,13.8865 1.50804,16.7769c-1.13103,0.31417 -2.23064,0.47126 -3.29883,0.47126c-1.69654,0 -2.82757,-0.31417 -3.39308,-0.94252c-0.56551,-0.62835 -0.84827,-1.69654 -0.84827,-3.20458c0,-0.75402 0.01571,-2.67048 0.04713,-5.74939c0.03142,-3.07891 0.04713,-5.49805 0.04713,-7.25742v-14.70335c0,-8.16853 -0.47126,-13.76083 -1.41378,-16.7769c1.13103,-0.37701 2.48198,-0.56551 4.05285,-0.56551c1.94788,0 3.58159,0.7226 4.90112,2.1678c2.45056,2.51339 6.03215,7.47735 10.74476,14.89186c4.71261,7.41451 8.85971,14.4206 12.4413,21.01826c-0.31417,-4.52411 -0.47126,-11.27885 -0.47126,-20.26424c0,-6.78616 -0.1885,-12.6298 -0.56551,-17.53092c1.00536,-0.12567 1.91646,-0.1885 2.73332,-0.1885c2.8904,0 4.3356,0.94252 4.3356,2.82757c0,0.25134 -0.04713,1.22528 -0.14138,2.92182c-0.09425,1.69654 -0.1885,3.80151 -0.28276,6.3149c-0.09425,2.51339 -0.14138,4.90112 -0.14138,7.16317v12.6298c0,7.35168 0.15709,13.03823 0.47126,17.05966z" data-paper-data="{&quot;elementType&quot;:&quot;letter&quot;,&quot;baseline&quot;:52,&quot;baselineProportion&quot;:0.9961685823754789,&quot;fontSize&quot;:100}"></path><path d="M357.68321,195.23943c0.1885,1.50804 0.28276,6.37774 0.28276,14.6091h6.03215c4.20993,0 7.22601,-0.09425 9.04822,-0.28276c0.1885,0.50268 0.28276,1.19386 0.28276,2.07355c0,1.2567 -0.26705,2.12068 -0.80114,2.59194c-0.5341,0.47126 -1.36666,0.73831 -2.49769,0.80114c-1.31953,0.06283 -3.11032,0.09425 -5.37238,0.09425h-6.69191c0,10.11641 0.1885,16.21139 0.56551,18.28494c2.26205,0.12567 4.08426,0.1885 5.46663,0.1885c8.2942,0 13.72941,-0.56551 16.30564,-1.69654c0.43984,1.13103 0.65977,2.32489 0.65977,3.58159c0,1.00536 -0.25134,1.72796 -0.75402,2.1678c-0.94252,0.69118 -5.21529,1.03677 -12.81831,1.03677c-1.50804,0 -3.92718,-0.01571 -7.25742,-0.04713c-3.33025,-0.03142 -5.0582,-0.04713 -5.18387,-0.04713c-1.57087,-0.06283 -2.62335,-0.40843 -3.15745,-1.03677c-0.5341,-0.62835 -0.80114,-1.66512 -0.80114,-3.11032c0,-0.87969 0.03142,-2.81186 0.09425,-5.79651c0.06283,-2.98466 0.09425,-5.32525 0.09425,-7.02179v-14.4206c0,-7.16317 -0.37701,-12.78689 -1.13103,-16.87116c6.15781,-0.43984 11.9072,-0.65977 17.24816,-0.65977c7.60302,0 11.87579,0.37701 12.81831,1.13103c0.50268,0.43984 0.75402,1.16244 0.75402,2.1678c0,1.2567 -0.21992,2.45056 -0.65977,3.58159c-3.01607,-1.00536 -7.72869,-1.50804 -14.13784,-1.50804c-2.45056,0 -5.24671,0.06283 -8.38845,0.1885z" data-paper-data="{&quot;elementType&quot;:&quot;letter&quot;,&quot;baseline&quot;:51.900000000000006,&quot;baselineProportion&quot;:0.9980769230769232,&quot;fontSize&quot;:100}"></path></g></g><g data-paper-data="{&quot;baseline&quot;:52.400000000000006,&quot;elementType&quot;:&quot;row&quot;}"><g data-paper-data="{&quot;baselineProportion&quot;:0.9703703703703704,&quot;fontSize&quot;:100,&quot;baseline&quot;:52.400000000000006,&quot;elementType&quot;:&quot;word&quot;}"><path d="M113.61697,294.48707c-1.31953,0 -4.36702,-0.06283 -9.14247,-0.1885c-0.31417,0.75402 -0.98965,2.41914 -2.02642,4.99537c-1.03677,2.57623 -1.86934,4.72832 -2.49769,6.45628c-0.62835,1.72796 -1.16244,3.40879 -1.60229,5.0425c-3.70726,-0.50268 -5.56088,-1.47662 -5.56088,-2.92182c0,-0.62835 0.29847,-1.66512 0.8954,-3.11032c0.59693,-1.4452 1.63371,-3.84863 3.11032,-7.2103c1.47662,-3.36166 2.87469,-6.73904 4.19423,-10.13212c4.90112,-12.6298 8.10569,-21.48952 9.61373,-26.57914c1.00536,-0.1885 2.1678,-0.28276 3.48733,-0.28276c1.38237,0 2.35631,0.20421 2.92182,0.61264c0.56551,0.40843 1.19386,1.52374 1.88505,3.34596c0.50268,1.31953 1.86934,4.97966 4.09997,10.98039c2.23064,6.00073 3.9743,10.60338 5.231,13.80796c3.01607,7.41451 5.96931,13.85508 8.85971,19.32171c-1.75938,0.87969 -3.17316,1.31953 -4.24135,1.31953c-1.88505,0 -3.17316,-0.62835 -3.86434,-1.88505c-0.37701,-0.87969 -2.23064,-5.46663 -5.56088,-13.76083c-5.4038,0.12567 -8.67121,0.1885 -9.80224,0.1885zM121.53416,289.39745c-1.19386,-2.82757 -3.73867,-9.51948 -7.63443,-20.07573c-3.14174,9.04822 -5.62372,15.70871 -7.44593,19.98148c3.77009,0.12567 6.66049,0.1885 8.67121,0.1885c2.95324,0 5.08962,-0.03142 6.40915,-0.09425" data-paper-data="{&quot;elementType&quot;:&quot;letter&quot;,&quot;baseline&quot;:51.7,&quot;baselineProportion&quot;:0.9699812382739214,&quot;fontSize&quot;:100}"></path><path d="M144.34321,260.93326c1.13103,-0.37701 2.45056,-0.56551 3.9586,-0.56551c1.69654,0 2.93753,0.28276 3.72296,0.84827c0.78544,0.56551 1.17815,1.53945 1.17815,2.92182c0,2.07355 -0.20421,6.62908 -0.61264,13.66658c-0.40843,7.0375 -0.61264,12.53555 -0.61264,16.49415c0,3.33025 0.97394,5.84364 2.92182,7.54018c1.94788,1.69654 4.24135,2.54481 6.88042,2.54481c2.38772,0 4.90112,-0.56551 7.54018,-1.69654c2.63906,-1.13103 4.77545,-2.45056 6.40915,-3.9586c0,-0.31417 0.01571,-1.11532 0.04713,-2.40343c0.03142,-1.28811 0.04713,-3.50304 0.04713,-6.64478c0,-3.14174 0,-7.16317 0,-12.06429c0,-6.53482 -0.1885,-12.18996 -0.56551,-16.96541c1.00536,-0.1885 2.23064,-0.28276 3.67584,-0.28276c2.8904,0 4.3356,0.94252 4.3356,2.82757c0,0.06283 -0.04713,0.95823 -0.14138,2.68619c-0.09425,1.72796 -0.20421,4.41415 -0.32988,8.05857c-0.12567,3.64442 -0.1885,7.85436 -0.1885,12.6298c0,7.60302 0.07854,12.69264 0.23563,15.26887c0.15709,2.57623 0.58122,4.96395 1.27241,7.16317c-1.06819,0.31417 -2.45056,0.47126 -4.1471,0.47126c-1.63371,0 -2.76473,-0.29847 -3.39308,-0.8954c-0.62835,-0.59693 -0.94252,-1.71225 -0.94252,-3.34596v-1.13103c-2.07355,1.69654 -4.52411,3.09462 -7.35168,4.19423c-2.82757,1.09961 -5.43521,1.64941 -7.82294,1.64941c-4.77545,0 -8.56125,-1.06819 -11.3574,-3.20458c-2.79615,-2.13638 -4.19423,-5.96931 -4.19423,-11.49878c0,-2.8904 0.10996,-6.80187 0.32988,-11.73441c0.21992,-4.93254 0.32988,-8.59266 0.32988,-10.98039c0,-4.77545 -0.40843,-8.63979 -1.22528,-11.59303z" data-paper-data="{&quot;elementType&quot;:&quot;letter&quot;,&quot;baseline&quot;:51.900000000000006,&quot;baselineProportion&quot;:0.9866920152091254,&quot;fontSize&quot;:100}"></path><path d="M231.71506,298.63417c2.45056,1.00536 3.67584,2.41914 3.67584,4.24135c0,1.88505 -1.47662,3.53446 -4.42986,4.94824c-2.95324,1.41378 -6.66049,2.12068 -11.12177,2.12068c-7.35168,0 -13.25815,-2.29347 -17.71943,-6.88042c-4.46127,-4.58694 -6.69191,-10.61909 -6.69191,-18.09644c0,-7.85436 2.21493,-13.99646 6.64478,-18.42632c4.42986,-4.42986 10.47771,-6.64478 18.14356,-6.64478c4.08426,0 7.50876,0.76973 10.2735,2.30918c2.76473,1.53945 4.1471,3.44021 4.1471,5.70226c0,2.32489 -1.72796,3.77009 -5.18387,4.3356c-0.87969,-2.32489 -2.3406,-4.09997 -4.38273,-5.32525c-2.04213,-1.22528 -4.19423,-1.83792 -6.45628,-1.83792c-4.58694,0 -8.35703,1.75938 -11.31027,5.27813c-2.95324,3.51875 -4.42986,7.88577 -4.42986,13.10106c0,6.09498 1.47662,11.1846 4.42986,15.26887c2.95324,4.08426 7.10034,6.1264 12.4413,6.1264c2.38772,0 4.66549,-0.5341 6.83329,-1.60229c2.1678,-1.06819 3.88005,-2.60765 5.13675,-4.61836z" data-paper-data="{&quot;elementType&quot;:&quot;letter&quot;,&quot;baseline&quot;:52.400000000000006,&quot;baselineProportion&quot;:0.9868173258003766,&quot;fontSize&quot;:100}"></path><path d="M255.93789,292.31927v-14.70335c0,-2.8904 -0.06283,-6.78616 -0.1885,-11.68728c-7.35168,0 -12.22138,0.09425 -14.6091,0.28276c-0.12567,-0.31417 -0.1885,-1.09961 -0.1885,-2.35631c0,-1.13103 0.26705,-1.91646 0.80114,-2.35631c0.5341,-0.43984 1.39808,-0.65977 2.59194,-0.65977c0.50268,0 1.74367,-0.01571 3.72296,-0.04713c1.9793,-0.03142 3.59729,-0.04713 4.85399,-0.04713h9.14247c8.35703,0 13.44666,-0.06283 15.26887,-0.1885c0.12567,0.62835 0.1885,1.38237 0.1885,2.26205c0,2.07355 -1.13103,3.11032 -3.39308,3.11032h-10.93326c0,0.69118 -0.04713,1.86934 -0.14138,3.53446c-0.09425,1.66512 -0.1728,3.37737 -0.23563,5.13675c-0.06283,1.75938 -0.09425,3.4245 -0.09425,4.99537v14.79761c0,6.59766 0.50268,11.43594 1.50804,14.51485c-0.94252,0.37701 -2.32489,0.56551 -4.1471,0.56551c-1.69654,0 -2.84328,-0.31417 -3.44021,-0.94252c-0.59693,-0.62835 -0.8954,-1.69654 -0.8954,-3.20458c0,-0.75402 0.03142,-2.67048 0.09425,-5.74939c0.06283,-3.07891 0.09425,-5.49805 0.09425,-7.25742z" data-paper-data="{&quot;elementType&quot;:&quot;letter&quot;,&quot;baseline&quot;:51.7,&quot;baselineProportion&quot;:0.9961464354527938,&quot;fontSize&quot;:100}"></path><path d="M288.17217,292.31927v-14.70335c0,-6.53482 -0.1885,-12.18996 -0.56551,-16.96541c1.13103,-0.1885 2.32489,-0.28276 3.58159,-0.28276c2.95324,0 4.42986,0.94252 4.42986,2.82757c0,0.25134 -0.04713,1.22528 -0.14138,2.92182c-0.09425,1.69654 -0.20421,3.80151 -0.32988,6.3149c-0.12567,2.51339 -0.1885,4.90112 -0.1885,7.16317v14.79761c0,6.59766 0.50268,11.43594 1.50804,14.51485c-0.94252,0.37701 -2.32489,0.56551 -4.1471,0.56551c-1.69654,0 -2.84328,-0.31417 -3.44021,-0.94252c-0.59693,-0.62835 -0.8954,-1.69654 -0.8954,-3.20458c0,-0.75402 0.03142,-2.67048 0.09425,-5.74939c0.06283,-3.07891 0.09425,-5.49805 0.09425,-7.25742z" data-paper-data="{&quot;elementType&quot;:&quot;letter&quot;,&quot;baseline&quot;:51.900000000000006,&quot;baselineProportion&quot;:0.9961612284069097,&quot;fontSize&quot;:100}"></path><path d="M332.65924,309.94444c-7.28884,0 -13.10106,-2.26205 -17.43667,-6.78616c-4.3356,-4.52411 -6.50341,-10.58767 -6.50341,-18.19069c0,-7.66585 2.1678,-13.76083 6.50341,-18.28494c4.3356,-4.52411 10.14783,-6.78616 17.43667,-6.78616c7.35168,0 13.21103,2.26205 17.57805,6.78616c4.36702,4.52411 6.55053,10.61909 6.55053,18.28494c0,7.60302 -2.18351,13.66658 -6.55053,18.19069c-4.36702,4.52411 -10.22637,6.78616 -17.57805,6.78616M349.24764,286.28712c0,-3.58159 -0.50268,-6.91183 -1.50804,-9.99074c-1.00536,-3.07891 -2.81186,-5.71797 -5.41951,-7.91719c-2.60765,-2.19922 -5.79651,-3.29883 -9.56661,-3.29883c-5.08962,0 -9.12676,1.66512 -12.11142,4.99537c-2.98466,3.33025 -4.47698,7.5716 -4.47698,12.72406c0,3.77009 0.50268,7.25742 1.50804,10.462c1.00536,3.20458 2.79615,5.93789 5.37238,8.19995c2.57623,2.26205 5.78081,3.39308 9.61373,3.39308c5.27813,0 9.36239,-1.71225 12.25279,-5.13675c2.8904,-3.4245 4.3356,-7.90148 4.3356,-13.43095z" data-paper-data="{&quot;elementType&quot;:&quot;letter&quot;,&quot;baseline&quot;:52.400000000000006,&quot;baselineProportion&quot;:0.9868173258003766,&quot;fontSize&quot;:100}"></path><path d="M407.11853,309.28468c-1.2567,0.12567 -2.23064,0.1885 -2.92182,0.1885c-2.13638,0 -3.64442,-0.62835 -4.52411,-1.88505c-1.88505,-2.8904 -5.43521,-8.67121 -10.65051,-17.34242c-5.21529,-8.67121 -9.48806,-15.42595 -12.81831,-20.26424c0.12567,4.71261 0.1885,12.12712 0.1885,22.24353c0,8.2942 0.50268,13.8865 1.50804,16.7769c-1.13103,0.31417 -2.23064,0.47126 -3.29883,0.47126c-1.69654,0 -2.82757,-0.31417 -3.39308,-0.94252c-0.56551,-0.62835 -0.84827,-1.69654 -0.84827,-3.20458c0,-0.75402 0.01571,-2.67048 0.04713,-5.74939c0.03142,-3.07891 0.04713,-5.49805 0.04713,-7.25742v-14.70335c0,-8.16853 -0.47126,-13.76083 -1.41378,-16.7769c1.13103,-0.37701 2.48198,-0.56551 4.05285,-0.56551c1.94788,0 3.58159,0.7226 4.90112,2.1678c2.45056,2.51339 6.03215,7.47735 10.74476,14.89186c4.71261,7.41451 8.85971,14.4206 12.4413,21.01826c-0.31417,-4.52411 -0.47126,-11.27885 -0.47126,-20.26424c0,-6.78616 -0.1885,-12.6298 -0.56551,-17.53092c1.00536,-0.12567 1.91646,-0.1885 2.73332,-0.1885c2.8904,0 4.3356,0.94252 4.3356,2.82757c0,0.25134 -0.04713,1.22528 -0.14138,2.92182c-0.09425,1.69654 -0.1885,3.80151 -0.28276,6.3149c-0.09425,2.51339 -0.14138,4.90112 -0.14138,7.16317v12.6298c0,7.35168 0.15709,13.03823 0.47126,17.05966z" data-paper-data="{&quot;elementType&quot;:&quot;letter&quot;,&quot;baseline&quot;:52,&quot;baselineProportion&quot;:0.9961685823754789,&quot;fontSize&quot;:100}"></path></g></g></g></g></g></svg>